inDegrees=no
num_controls=7
num_derivatives=13
num_iterations=131
num_multipliers=7
num_parameters=0
num_slacks=7
num_states=26
objective=0.519235
objective_accelerations=0.036568
objective_balance=0.002174
objective_effort=0.040819
objective_height=0.427740
objective_ligament=0.011935
solver_duration=1737.351391
status=Solve_Succeeded
success=true
DataType=double
version=3
OpenSimVersion=4.5
endheader
time	/jointset/ground_pelvis/pelvis_tilt/value	/jointset/ground_pelvis/pelvis_tx/value	/jointset/ground_pelvis/pelvis_ty/value	/jointset/hip_l/hip_flexion_l/value	/jointset/hip_l/hip_adduction_l/value	/jointset/hip_l/hip_rotation_l/value	/jointset/back/lumbar_extension/value	/jointset/patellofemoral_l/patellar_flexion_l/value	/jointset/knee_l/knee_flexion_l/value	/jointset/knee_l/knee_adduction_l/value	/jointset/knee_l/knee_rotation_l/value	/jointset/ankle_l/ankle_angle_l/value	/jointset/subtalar_l/subtalar_angle_l/value	/jointset/ground_pelvis/pelvis_tilt/speed	/jointset/ground_pelvis/pelvis_tx/speed	/jointset/ground_pelvis/pelvis_ty/speed	/jointset/hip_l/hip_flexion_l/speed	/jointset/hip_l/hip_adduction_l/speed	/jointset/hip_l/hip_rotation_l/speed	/jointset/back/lumbar_extension/speed	/jointset/patellofemoral_l/patellar_flexion_l/speed	/jointset/knee_l/knee_flexion_l/speed	/jointset/knee_l/knee_adduction_l/speed	/jointset/knee_l/knee_rotation_l/speed	/jointset/ankle_l/ankle_angle_l/speed	/jointset/subtalar_l/subtalar_angle_l/speed	/forceset/tau_hip_flexion_l	/forceset/tau_hip_adduction_l	/forceset/tau_hip_rotation_l	/forceset/tau_knee_flexion_l	/forceset/tau_ankle_angle_l	/forceset/tau_subtalar_angle_l	/forceset/tau_lumbar_extension	lambda_cid13_p0	lambda_cid13_p1	lambda_cid13_p2	lambda_cid13_p3	lambda_cid13_p4	lambda_cid13_p5	lambda_cid14_p0	/jointset/ground_pelvis/pelvis_tilt/accel	/jointset/ground_pelvis/pelvis_tx/accel	/jointset/ground_pelvis/pelvis_ty/accel	/jointset/hip_l/hip_flexion_l/accel	/jointset/hip_l/hip_adduction_l/accel	/jointset/hip_l/hip_rotation_l/accel	/jointset/back/lumbar_extension/accel	/jointset/patellofemoral_l/patellar_flexion_l/accel	/jointset/knee_l/knee_flexion_l/accel	/jointset/knee_l/knee_adduction_l/accel	/jointset/knee_l/knee_rotation_l/accel	/jointset/ankle_l/ankle_angle_l/accel	/jointset/subtalar_l/subtalar_angle_l/accel	gamma_cid13_p0	gamma_cid13_p1	gamma_cid13_p2	gamma_cid13_p3	gamma_cid13_p4	gamma_cid13_p5	gamma_cid14_p0
0	-0.03682185607107833	0.05667703962421951	0.9203416015442557	0.3085816938045678	-0.2956397720342488	-0.301594512501159	-0.3879492264334186	0.2499269421184927	0.2499269421184919	-0.1745329148628439	-0.174520168984199	-0.0008036623358878681	0.0004381667979879573	0	0	0	0	0	0	0	0	0	0	0	0	0	0.05362901670497483	-0.0307478672252514	-0.01698160589854238	-0.2185254316236129	0.1525767271243318	-0.01198454775196468	0.01810671654476601	4.778364058583956	1.445853316228414	2.653243552584812	20.39136083560552	-634.3069353980006	-71.13493400740612	-23.19656188389239	-1.083253491537532	-2.036142968080974	-0.765288002421717	7.950155627688766	-0.4891986364320195	2.420576533304478	-6.648671038556711	6.896296362227074	6.896296362227551	1.192545992678757	-0.04586138654400264	0.454204009298552	-0.3798353941244567	1.569154009236109e-08	1.083040120551639e-07	3.906064034682421e-09	-1.310333630486913e-08	1.068941569874077e-07	3.969696238873011e-08	9.073417631760874e-09
0.01	-0.03687309591141753	0.05657731097234315	0.9203041836555947	0.3089691259254149	-0.2956646686862607	-0.3014729563797641	-0.3882802886502149	0.2502649728901088	0.2502649728901009	-0.1744766026824172	-0.1745200237012982	-0.0007811538314925201	0.0004186467966803928	-0.01023001270737582	-0.01975516478192386	-0.007451186347575477	0.07704623105333863	-0.004978442525818771	0.02420017558472821	-0.06578799132441503	0.06732121728626063	0.06732121728626515	0.01116673952089392	1.879989639695434e-05	0.004613359255943827	-0.003863170933100241	0.0527413873303759	-0.04208742355629917	-0.01730476366278552	-0.2225111866837628	0.1578591153067682	-0.002585783485441757	0.0204321370557394	6.766701734186031	-2.828041432282006	3.156279062112652	16.78087209292458	-636.6888536348127	-80.07074422199845	-23.2003982714096	-0.9901861483204559	-1.916621014962471	-0.730153864405393	7.515825648786895	-0.5020510298827794	2.403085167439313	-6.480195374135659	6.607292041736708	6.607292041737091	1.064401337455547	0.02420954923449729	0.4816547233052041	-0.3834514466166275	-5.877230623319261e-09	8.622668184000708e-08	5.772373201905881e-08	5.673850433000818e-09	1.595035100807897e-08	2.045854006833085e-10	8.201383182562644e-10
0.02	-0.0370260980764276	0.05628574711630462	0.9201932299207622	0.31011381411772	-0.2957393265573761	-0.3011127290832455	-0.3892564972192061	0.2512676673605612	0.2512676673605611	-0.1743114904256511	-0.1745199986451441	-0.0007091611666251936	0.0003617163852990538	-0.02035246493406355	-0.03836704083243338	-0.01470716923431943	0.1514512142918995	-0.009952243820678056	0.04773423502474872	-0.129029270438898	0.1329327397689681	0.1329327397689749	0.02176001526822124	-2.404534708688358e-05	0.009896832094402482	-0.007482082014754016	0.05185375795577274	-0.05342697988734432	-0.01762792142695663	-0.2264969417439206	0.1631415034892064	0.006812980781083582	0.02275755756670535	8.808294802715064	-7.109463174349793	3.658460872963864	13.12781233207081	-638.2469130603513	-88.93763905875082	-23.21174139794205	-1.061741395399905	-1.807485221798125	-0.7262473102554131	7.421906064733221	-0.4882703902401208	2.287353304362938	-6.139328596570296	6.554357401516456	6.554357401516472	1.077853237965443	-0.05819041452016225	0.5882267258014979	-0.3309834238351694	-2.744600133899961e-08	6.414935162485025e-08	1.115414000034352e-07	2.445103717087076e-08	-7.499345497124977e-08	-3.928779158736349e-08	-7.433140995248345e-09
0.03	-0.03727929694996472	0.05581282769318435	0.9200105289547873	0.3119899865639401	-0.29586334553084	-0.300521065901253	-0.3908519854244916	0.2529176781638856	0.2529176781638883	-0.1740428077311773	-0.1745210244964136	-0.0005823240013051263	0.000269724857400596	-0.0302034633252311	-0.05612152757787942	-0.02181413887302649	0.2233876563645391	-0.01481815610932356	0.07049477909474683	-0.1896225598972281	0.1967526338797935	0.1967526338797933	0.03191884285497472	-0.0001601995727770606	0.01545082583872837	-0.01088759418817154	0.04418775570547811	-0.0465917759201895	-0.01657483044424145	-0.2187099434348271	0.1552234503080839	0.005518809921524604	0.02921122264780007	6.163128308796876	-6.181376439952215	3.62143417467894	14.06416168676549	-639.7035643199501	-86.04030435954007	-23.23022665680918	-0.934204371266329	-1.745128002830271	-0.7001043936777482	7.020166417277054	-0.4807644087733151	2.254846623898386	-5.952457512300093	6.24828888333538	6.248288883334516	0.976265952541251	0.0118287868685143	0.5360203700511467	-0.3410636847127184	-3.932134544924251e-08	5.454383342643795e-08	1.446385362283598e-07	3.618647729301946e-08	-1.313095688084708e-07	-5.914862820230153e-08	-1.175311712972219e-08
0.04	-0.03762849086947232	0.05516522388222707	0.9197573217718257	0.3145736540586358	-0.29603502617931	-0.299704908945445	-0.3930400322027276	0.2551963846018187	0.2551963846018189	-0.1736742630741347	-0.1745227805472381	-0.0004005399642812098	0.0001445324936444234	-0.03955147412804709	-0.07330391839983832	-0.02880841263168466	0.2929502239870863	-0.01948457882183388	0.09263298978795216	-0.2475409850289848	0.2586718666894123	0.2586718666894128	0.04173240778216754	-0.0001700852599894845	0.02088620643517387	-0.01412224918629621	0.0365217534551942	-0.03975657195302782	-0.01552173946157941	-0.2109229451257134	0.1473053971269696	0.004224639061976192	0.0356648877288943	3.567535483631691	-5.259368278957703	3.582405138451807	14.95297327139932	-640.402688450431	-83.07774769321878	-23.25533180521134	-0.9611438777295875	-1.693066037100716	-0.7037081342456359	6.947131174714754	-0.4483724750130812	2.162886629004383	-5.604355731255621	6.174225141275169	6.174225141276707	1.008800706053316	-0.03293670682460965	0.5645040962254031	-0.296811988776605	-5.099682509339393e-08	4.519546599125749e-08	1.773084449943266e-07	4.777672676329762e-08	-1.86911709611834e-07	-7.860469078892804e-08	-1.599199422957685e-08
0.05	-0.03806906891847904	0.05434882523024832	0.919434593321411	0.3178415289092427	-0.2962523340998905	-0.2986709063247365	-0.3957939262758229	0.2580850843259859	0.2580850843259844	-0.1732092202682865	-0.1745244493142748	-0.0001647440349678972	-1.202131219574214e-05	-0.04849927760805722	-0.08986282734577929	-0.03572860855623229	0.3602357279221839	-0.02394399669973812	0.114047232548928	-0.3028204281165364	0.3187613111593094	0.3187613111593031	0.05121082052308342	-0.0001584089655998456	0.02627320479742512	-0.01715337635220362	0.03003872158724835	-0.03816961812194996	-0.01472634419507969	-0.2060059348621974	0.1420234055552922	0.00648850558563417	0.04134551992619121	1.954775209603721	-5.983942369278865	3.725061117233428	14.91616002164179	-641.1788902641121	-83.72701768471309	-23.28638446161266	-0.8518706394069556	-1.62034597686174	-0.6849128189616883	6.560902342329467	-0.439800389930991	2.112621166209102	-5.427128376448058	5.880292284830312	5.880292284828317	0.9075844686970088	0.01903905989797567	0.5258312958109015	-0.3010201520094828	-5.994737107476017e-08	3.012422403881422e-08	2.007780215301516e-07	5.645060686683642e-08	-2.307764345121308e-07	-9.420809009097465e-08	-1.980045706547603e-08
0.06	-0.03859717941354017	0.05337022895810589	0.9190429154122705	0.3217705872670835	-0.296513250988401	-0.2974263756631051	-0.3990880927355828	0.2615654761318466	0.2615654761318476	-0.1726513487529135	-0.1745258374659042	0.0001249285958851207	-0.0001978378039973153	-0.05705796333887685	-0.105743442432572	-0.04259830437687127	0.4251869254341681	-0.02820637240772038	0.134738597972501	-0.3555954623618108	0.37701028302854	0.3770102830285192	0.06029814968745183	-0.0001139621781207861	0.03166154674311285	-0.01997478637857773	0.0235556897192979	-0.03658266429086517	-0.01393094892856722	-0.2010889245986824	0.1367414139836181	0.008752372109300244	0.04702615212348019	0.3864676177098374	-6.714193626095037	3.866216454436483	14.83313077868107	-641.2738420986969	-84.31702629238656	-23.3226769251687	-0.8833203278914775	-1.557407265271073	-0.6936081134639035	6.48026989009205	-0.4089640410286807	2.018311161523821	-5.10347396280019	5.806130621141864	5.806130621141891	0.930583990743827	-0.02638260820672044	0.5647728129126817	-0.2548685608699485	-6.878318300716703e-08	1.4812018948802e-08	2.238602156562864e-07	6.500169247072303e-08	-2.741469524270354e-07	-1.096492719915652e-07	-2.359079719552445e-08
0.07000000000000001	-0.0392092613686219	0.05223626926180459	0.9185826685480015	0.3263380208843951	-0.2968157956871268	-0.2959787568402523	-0.4028975524465486	0.2656195115089474	0.2656195115089495	-0.1720044975209452	-0.1745269040600098	0.0004686348343615219	-0.0004107583459034439	-0.06530219493270752	-0.1209291340169235	-0.04945053181709949	0.4879195228419811	-0.03227232112022409	0.1546630946103335	-0.4059113459427278	0.4334988417888503	0.4334988417888237	0.06899566649451164	-9.783189312796509e-05	0.03708647671081192	-0.02257495460612339	0.01765932343156668	-0.0344596473410391	-0.01331588185748799	-0.1978575883437071	0.1340635531017447	0.009667479552287604	0.05230095530668358	-0.4053829114003042	-6.9844300456018	3.922381064389859	14.30368214919002	-641.4996933872545	-83.9868230213191	-23.3634029805017	-0.786538870036383	-1.481232579460363	-0.6810049154278737	6.112708188030552	-0.4008981244274119	1.961172347576279	-4.937875472424419	5.525530677174726	5.525530677173829	0.8278923327284602	0.01587939614813483	0.5323679347682249	-0.2574635982419723	-7.552641148803585e-08	-1.610402183478793e-08	2.419865636250337e-07	6.92700729569826e-08	-3.062574240130053e-07	-1.248682057244853e-07	-2.871533923587216e-08
0.08	-0.03990209849862357	0.05095403615477107	0.9180539044381053	0.331521371180165	-0.2971580974405912	-0.2943355623644882	-0.407198616976661	0.2702294949083907	0.2702294949083948	-0.1712729597594981	-0.1745277556414059	0.0008667933417288561	-0.0006486550989940487	-0.07320899832283873	-0.1353981245790143	-0.05630175350234735	0.5483702611259783	-0.036157783355376	0.173853728554699	-0.4539164261911209	0.4881998874971256	0.4881998874970931	0.07723545558322784	-7.095963630088399e-05	0.04255200052129922	-0.02497002861547289	0.01176295714383228	-0.03233663039121182	-0.01270081478640708	-0.1946262520887327	0.1313856922198719	0.01058258699527644	0.05757575848988376	-1.157413518493696	-7.259602406883094	3.977006785874378	13.72819274510471	-641.1195039314895	-83.60278524927459	-23.40772338610771	-0.8158346871515781	-1.414067060818931	-0.6934069624678337	6.023898065328873	-0.3728667455583159	1.871538622830437	-4.641313296295412	5.448628010734883	5.448628010734903	0.8390384470751117	-0.02423421383986117	0.5728915814703083	-0.2138497172307188	-8.213463458493448e-08	-4.802676169538285e-08	2.59793179583627e-07	7.326214988726623e-08	-3.376414409971083e-07	-1.400728008659428e-07	-3.392595881881981e-08
